<?xml version="1.0" encoding="UTF-8" standalone="no"?>
<svg
   xmlns:dc="http://purl.org/dc/elements/1.1/"
   xmlns:cc="http://creativecommons.org/ns#"
   xmlns:rdf="http://www.w3.org/1999/02/22-rdf-syntax-ns#"
   xmlns:svg="http://www.w3.org/2000/svg"
   xmlns="http://www.w3.org/2000/svg"
   xmlns:sodipodi="http://sodipodi.sourceforge.net/DTD/sodipodi-0.dtd"
   xmlns:inkscape="http://www.inkscape.org/namespaces/inkscape"
   width="3.2244809in"
   height="3.2187119in"
   viewBox="0 0 967.34421 965.61348"
   version="1.1"
   id="svg3"
   sodipodi:docname="arc_gaz_plain.svg"
   inkscape:version="1.0.2 (e86c870879, 2021-01-15)">
  <sodipodi:namedview
     pagecolor="#ffffff"
     bordercolor="#666666"
     borderopacity="1"
     objecttolerance="10"
     gridtolerance="10"
     guidetolerance="10"
     inkscape:pageopacity="0"
     inkscape:pageshadow="2"
     inkscape:window-width="1920"
     inkscape:window-height="1023"
     id="namedview8"
     showgrid="false"
     inkscape:zoom="2.956611"
     inkscape:cx="138.43025"
     inkscape:cy="170.07827"
     inkscape:window-x="0"
     inkscape:window-y="0"
     inkscape:window-maximized="1"
     inkscape:current-layer="svg3" />
  <metadata
     id="metadata9">
    <rdf:RDF>
      <cc:Work
         rdf:about="">
        <dc:format>image/svg+xml</dc:format>
        <dc:type
           rdf:resource="http://purl.org/dc/dcmitype/StillImage" />
        <dc:title />
      </cc:Work>
    </rdf:RDF>
  </metadata>
  <defs
     id="defs7" />
  <path
     id="path1248"
     style="fill:#000000;stroke:none;stroke-width:0.891832"
     d="m 208.55807,45.396129 c 14.59356,-7.094642 30.03824,-12.611846 45.67172,-14.597664 15.63347,-1.985795 31.45578,-0.440203 46.80454,6.59079 12.16439,3.186703 24.11174,7.731024 35.75498,13.020014 11.64327,5.28895 22.98247,11.32255 33.93056,17.48779 10.82098,11.043855 22.05037,21.803395 32.47518,33.205391 10.42478,11.40201 20.04495,23.44646 27.64745,37.06018 11.69595,14.78757 22.97336,29.88765 33.75415,45.33259 10.7808,15.44497 21.06503,31.23483 30.77457,47.40195 4.87272,20.15521 11.34355,40.34069 20.41776,59.12412 9.07423,18.78341 20.75178,36.16477 36.03798,50.71173 17.4594,19.58606 29.48281,42.5419 38.47394,66.85998 8.9911,24.31812 14.94988,49.99848 20.27994,75.03362 1.16928,11.24418 1.31132,22.54355 1.06965,33.82548 -0.24163,11.28195 -0.8672,22.54645 -1.23297,33.72092 6.72612,12.25794 14.90494,24.17269 24.83736,34.18124 9.93232,10.00853 21.61828,18.11091 35.35874,22.74419 16.52912,12.22192 34.79284,22.63331 54.14551,30.01552 19.35267,7.38222 39.79426,11.73531 60.67925,11.84057 17.18988,3.61631 29.24334,14.99421 39.45616,28.67705 10.21273,13.68293 18.58496,29.67072 28.41234,42.50686 6.64272,13.51589 12.35393,27.64741 19.04005,41.16749 6.686,13.52016 14.347,26.4289 24.8894,37.49929 -3.5486,14.90235 -9.346,29.21427 -8.9746,41.39572 0.3713,12.18143 6.9115,22.23229 28.0383,28.61246 13.6759,5.69641 21.2788,14.65072 21.0386,21.44462 -0.2402,6.79398 -8.3235,11.4274 -26.0204,8.48196 -17.7215,10.24783 -34.6812,9.0016 -51.5503,4.71914 -16.86909,-4.28251 -33.64766,-11.60115 -51.007,-13.49817 13.21127,6.26306 20.34602,17.8452 19.60721,27.64448 -0.73879,9.79926 -9.35103,17.81559 -27.63369,16.94713 -17.17337,3.30565 -33.00696,-1.69948 -48.8407,-6.96728 -15.83378,-5.26787 -31.66762,-10.7983 -48.84153,-8.54339 -16.7266,-2.7404 -33.72259,-3.08857 -50.5898,-4.10904 -16.86722,-1.02042 -33.60557,-2.71302 -49.81701,-8.14214 -11.44502,-1.72473 -21.99954,-7.27868 -32.37403,-12.28766 -10.37449,-5.00905 -20.56897,-9.47303 -31.29392,-9.01784 -12.74238,-1.44147 -24.42417,-2.72876 -35.14341,-5.529 -10.71926,-2.80026 -20.47592,-7.11352 -29.36804,-14.60706 -10.90202,-12.5568 -23.04832,-13.79287 -35.44352,-10.82396 -12.39519,2.96898 -25.03929,10.14296 -36.9369,14.40637 -9.99475,-5.1573 -18.39729,-0.68286 -26.98517,4.37702 -8.58791,5.0599 -17.36118,10.70528 -28.09746,7.88967 -9.84275,-4.58864 -20.05038,-4.75436 -30.40578,-4.05782 -10.35542,0.69644 -20.8586,2.25508 -31.29251,1.11524 -13.3019,3.19614 -25.83199,3.28237 -38.45662,2.19461 -12.62464,-1.08777 -25.3438,-3.34946 -39.02384,-4.849 -18.8956,-4.57 -37.97023,-4.33267 -56.72535,-1.16488 -18.75509,3.16786 -37.19063,9.26621 -54.807929,16.41862 -9.12157,2.37859 -19.83293,5.87798 -30.18739,7.47862 -10.35444,1.60066 -20.35199,1.30263 -28.045884,-3.91353 -4.95978,-8.67923 -7.11841,-18.32572 -5.01115,-26.58533 2.10726,-8.2596 8.48037,-15.13234 20.584064,-18.26372 10.07244,-4.41254 20.1224,-8.60432 29.9292,-13.22522 9.80677,-4.62087 19.370339,-9.67086 28.470039,-15.79981 13.72951,-7.21857 28.31138,-13.76595 41.85044,-21.70102 13.5391,-7.93509 26.0354,-17.25785 35.59373,-30.02718 -12.05098,-11.9115 -14.1557,-28.17377 -13.77275,-45.14481 0.38297,-16.97104 3.2536,-34.65079 1.15335,-49.39716 -8.84765,-27.49562 -11.14179,-55.9356 -10.9522,-84.5915 0.18941,-28.65584 2.8629,-57.52759 3.95019,-85.88661 2.5332,-8.78341 3.81509,-18.22093 5.428,-27.43261 1.61294,-9.21166 3.55694,-18.19747 7.41439,-26.07731 1.49012,0.14276 2.36937,-6.32781 3.82815,-13.21879 1.45879,-6.89096 3.4971,-14.20241 7.30535,-15.74177 4.65797,-3.98176 7.35083,-9.39016 9.22814,-15.54524 1.87731,-6.1551 2.93903,-13.05687 4.3347,-20.02536 4.81339,-16.70011 5.76967,-34.54166 2.23957,-51.27892 -3.53009,-16.73726 -11.54655,-32.37018 -24.6786,-44.65307 -11.56982,-5.75873 -17.83929,-24.6309 -23.84122,-38.08078 -6.0019,-13.44987 -11.73625,-21.47751 -22.23584,-5.54723 -14.9047,14.91686 -24.35459,33.24335 -31.31921,52.68456 -6.96463,19.44121 -11.443969,39.99716 -16.407579,59.37286 -1.64954,9.95532 -7.01813,24.69609 -10.9234,31.42471 -3.90524,6.7286 -6.3471,5.44508 -2.14306,-16.64816 7.28412,-24.12467 12.59066,-49.68064 20.43281,-74.08265 7.842179,-24.40204 18.219989,-47.65011 35.646699,-67.15899 8.89176,-9.04479 2.69828,-17.31891 -5.45086,-19.45433 -8.14915,-2.13542 -18.25404,1.86784 -17.1851,17.37774 -5.85932,18.2229 -15.887009,35.28929 -24.403659,52.8586 -8.51666,17.5693 -15.52232,35.64149 -15.33761,55.87591 -2.01159,10.15811 -3.58509,20.87155 -5.61217,31.31457 -2.02708,10.44302 -4.50774,20.61556 -8.33358,29.69189 -1.76739,-15.96434 -0.54401,-32.02156 1.8015,-48.01679 2.34552,-15.99531 5.81317,-31.92865 8.53427,-47.64527 5.77084,-14.5389 12.66261,-28.52681 19.3937,-42.55849 6.73108,-14.03172 13.301429,-28.10719 18.429449,-42.82131 8.69032,-5.87837 7.92088,-15.00024 3.68247,-24.35337 -4.23841,-9.3531 -11.945789,-18.93748 -17.131299,-25.74082 -8.47875,-12.02395 -9.16299,-27.72385 -4.03214,-41.02126 5.13088,-13.29743 16.076829,-24.19236 30.858449,-26.60636 7.73121,-8.210766 18.7387,-16.283096 30.65071,-24.175356 11.91199,-7.892255 24.72851,-15.604415 36.07779,-23.094925 4.05177,-2.61442 8.21258,-2.45746 12.08687,-2.7283 3.8743,-0.27089 7.4621,-0.96942 10.36781,-5.29501 z m 76.69755,-2.675484 c -13.14087,-5.73277 -23.0856,-4.40195 -32.18,-0.775258 -9.09437,3.626712 -17.33838,9.549322 -27.07778,13.000042 -7.12024,4.98412 -16.38427,6.03046 -25.5763,7.62958 -9.19205,1.59909 -18.31213,3.75097 -25.1444,10.946165 -4.50019,5.54497 -10.27058,11.16991 -16.52865,15.71466 -6.25807,4.54472 -13.00377,8.00919 -19.45454,9.23323 -6.58349,7.208496 -16.39532,10.245946 -24.23491,14.516136 -7.8396,4.27024 -13.70696,9.77326 -12.40153,21.91297 0.57361,9.91102 3.57499,19.88963 8.33746,27.94903 4.76245,8.0594 11.28601,14.1996 18.90403,16.43386 2.29322,0.67259 6.12028,0.18277 9.31101,-0.31109 3.19072,-0.49375 5.74514,-0.99139 5.49304,-0.33436 0.74748,1.06436 -2.23623,1.72978 -5.6371,2.42865 -3.40088,0.69889 -7.21895,1.43122 -8.14021,2.62947 -4.54364,5.90979 5.88568,15.67703 18.34731,25.87688 12.46165,10.19982 26.9556,20.83223 30.54128,28.47238 11.71561,9.77522 17.00034,24.32019 23.15169,38.10369 6.15134,13.78354 13.16936,26.80557 28.35161,33.53492 9.29866,10.24862 10.37417,18.02683 9.17363,26.33905 -1.20053,8.31221 -4.6771,17.15844 -4.4826,29.54314 -0.63188,8.02148 -1.11198,15.97926 -2.20405,23.86119 -1.09208,7.88192 -2.79614,15.68796 -5.87593,23.4059 -5.15046,14.57905 -6.80636,29.56921 -6.66348,44.63989 0.14297,15.07068 2.08455,30.22183 4.12931,45.1229 0.48185,9.14045 1.66936,18.21449 2.93651,27.30563 1.26719,9.09118 2.61404,18.19944 3.41468,27.40836 -10.34273,-9.91956 -15.8896,-22.74299 -20.42503,-36.15054 -4.53544,-13.40752 -8.05942,-27.39916 -14.3564,-39.65517 -4.09761,20.66078 -4.74235,41.68228 -4.97913,62.72886 -0.2369,21.04653 -0.0657,42.11809 -2.53147,62.87892 0.69847,13.69166 3.54504,27.11246 6.19363,40.51514 2.64858,13.40269 5.09919,26.78721 5.00579,40.40638 -3.33164,10.87211 -7.75251,26.50925 -7.42526,39.6337 0.32726,13.12448 5.40266,23.73622 21.0635,24.5576 14.89349,8.64246 27.72497,19.75809 39.41857,32.04807 11.69363,12.28995 22.24944,25.75421 32.59152,39.09404 6.12724,6.62882 12.97036,13.08095 20.58823,17.94744 7.61782,4.86644 16.01039,8.14738 25.2365,8.43376 8.40981,2.54331 17.33027,6.24701 25.77131,6.85301 8.44107,0.60608 16.40272,-1.8855 22.89495,-11.7324 15.13489,-19.86493 23.73313,-43.33935 32.98691,-66.41819 9.2538,-23.07882 19.16307,-45.76204 36.92004,-64.04441 -0.53253,-6.92063 10.18703,-19.66427 19.74782,-27.10963 9.56081,-7.44539 17.96282,-9.59247 12.79512,4.68005 -9.67181,6.68106 -13.4236,16.65389 -16.87505,27.181 -3.45147,10.52709 -6.60256,21.60863 -15.07293,30.50726 -6.75218,16.40881 -12.81992,33.46642 -19.53649,50.0794 -6.71657,16.61284 -14.08195,32.78106 -23.42941,47.41108 13.46745,-8.80548 28.54447,-11.72027 43.05425,-10.07466 14.50979,1.64563 28.45233,7.8516 39.65079,17.28773 12.49154,12.76138 29.50913,14.32957 46.75125,15.7276 17.24214,1.39804 34.70883,2.62583 48.0987,14.70615 19.40906,9.21262 40.13225,12.40296 61.2125,14.02601 21.08024,1.62313 42.51745,1.67895 63.35474,4.62263 15.47341,-2.8262 31.04345,3.31771 46.11513,8.00108 15.07179,4.68336 29.6451,7.90609 43.12522,-0.76244 -8.11226,-4.22371 -17.39337,-7.08889 -26.97646,-9.2547 -9.58318,-2.16592 -19.46816,-3.63253 -28.78824,-5.05919 -9.45494,-0.71285 -25.67407,-3.18198 -41.51005,-8.87479 -15.83592,-5.69277 -31.28878,-14.60922 -39.21116,-28.21651 -13.62347,-7.73359 -24.11899,-20.43328 -34.5213,-32.83161 -10.40234,-12.39826 -20.71155,-24.49523 -33.9625,-31.02352 -2.85329,-4.57662 -10.325,-12.59116 -17.76767,-21.80853 -7.44267,-9.21743 -14.85629,-19.63777 -17.59346,-29.02591 0.11172,-9.80024 -1.08732,-20.6721 -2.28881,-31.23889 -1.20148,-10.5667 -2.40537,-20.82821 -2.30302,-29.40792 5.21239,-10.86052 7.86457,-22.88894 10.18739,-35.1057 2.32284,-12.21676 4.31634,-24.62192 8.21138,-36.23582 5.85033,-27.3377 10.76367,-55.77029 12.03809,-84.20286 1.2744,-28.4326 -1.09011,-56.86519 -9.79543,-84.20284 -5.12796,-22.39518 -12.98542,-44.19057 -23.77987,-64.36421 -10.79449,-20.17366 -24.52598,-38.72554 -41.40208,-54.63371 -11.13418,-14.08857 -18.71363,-30.19292 -24.80939,-46.91624 -6.09581,-16.72333 -10.70791,-34.06563 -15.90749,-50.63013 -6.92881,-10.61236 -13.01057,-21.58744 -19.38134,-32.31213 -6.37076,-10.72472 -13.03048,-21.19912 -21.11522,-30.81016 -10.5483,-13.82078 -20.3345,-28.14848 -30.544,-42.13368 -10.20948,-13.98523 -20.84223,-27.628026 -33.08365,-40.078976 -9.26452,-9.59285 -20.38415,-15.810325 -32.13479,-20.913225 -11.75068,-5.10292 -24.13235,-9.09133 -35.92091,-14.22608 -0.95874,-2.74271 -3.36942,-2.26835 -5.84451,-1.90288 -2.47506,0.36549 -5.01451,0.62204 -6.23089,-2.556274 z m -49.05076,49.942579 c 8.01738,-2.83061 14.44376,-3.37641 20.54786,-2.6366 6.10412,0.73978 11.88597,2.76512 18.61429,5.07677 6.54447,5.047206 -1.1244,2.11023 -11.80047,0.18941 -10.67609,-1.92058 -24.35938,-2.8247 -29.84375,6.288216 -13.8164,8.78 -16.20815,8.55722 -13.63966,5.13606 2.56852,-3.42115 10.09725,-10.040656 16.12173,-14.054086 z M 101.53825,107.82437 c 1.22518,-0.50747 0.97144,0.10508 0.53825,0.53825 -0.43316,0.43318 -1.04572,0.6869 -0.53825,-0.53825 z m 149.82775,4.45916 c 18.39376,7.85727 16.59926,17.8625 8.01043,23.09151 -8.58882,5.229 -23.97202,5.68178 -32.75563,-5.5659 -21.0048,-5.29338 -16.2157,-8.1888 -5.47682,-10.50384 10.73887,-2.3151 27.42756,-4.0498 30.22202,-7.02177 z m 86.5077,32.10594 c 17.31979,-6.35431 31.87769,15.31306 37.51837,33.59824 5.64063,18.28521 2.36401,33.18822 -15.9852,13.3051 -10.93342,-0.0469 -21.80326,-7.21416 -25.61684,-12.52556 -3.81356,-5.31138 -0.57082,-8.76664 16.72093,-1.3889 20.16544,11.31987 17.501,5.93397 9.7728,-3.05316 -7.72817,-8.98714 -20.5201,-21.57551 -20.60967,-24.66053 l -0.9002,-2.63759 z m -174.79904,24.9713 c 16.00341,-2.92643 30.56666,2.29294 44.25079,10.25277 13.6841,7.95988 26.48911,18.66026 38.97607,26.69582 15.93371,12.37775 30.07127,26.76918 42.34147,42.63996 12.27025,15.87077 22.67309,33.22084 31.13751,51.51578 4.23257,11.10279 8.94325,22.11683 12.67877,33.35961 3.73555,11.2428 6.49594,22.71436 6.828,34.73212 1.59094,4.92481 3.86945,16.1155 4.58553,23.02803 0.71608,6.91255 -0.13012,9.54694 -4.78911,-2.64084 -4.10771,-11.10587 -6.85498,-22.61357 -9.96907,-33.97402 -3.11406,-11.3605 -6.59494,-22.57373 -12.16985,-33.09067 -8.07497,-21.62104 -19.33387,-41.91357 -33.36532,-60.02473 -14.03146,-18.11118 -30.83541,-34.041 -50.00057,-46.9366 -8.00478,-4.31289 -15.57775,-9.40753 -23.17644,-14.3831 -7.59869,-4.97556 -15.22313,-9.83205 -23.33085,-13.66874 -13.31233,-6.66617 -18.82227,-6.06397 -18.08516,-2.85124 0.73714,3.2127 7.72137,9.03592 19.39745,12.81176 10.14325,10.20154 21.12628,18.96773 31.83509,28.02507 10.70882,9.05733 21.14345,18.40583 30.19003,29.77194 17.6088,20.75698 31.35162,44.59813 41.5853,69.9289 10.23373,25.33079 16.95828,52.15124 20.53061,78.8668 -3.10375,13.49951 -6.8537,6.3907 -10.49922,-5.74717 -3.64553,-12.13789 -7.18663,-29.30485 -9.87267,-35.92166 -7.31549,-24.001 -16.48375,-48.48219 -28.95903,-70.81098 -12.47528,-22.32875 -28.25756,-42.50511 -48.8011,-57.89644 -8.01938,-8.44725 -16.19576,-16.72307 -24.82529,-24.50584 -8.62952,-7.78273 -17.71225,-15.07239 -27.54427,-21.54744 -12.11262,-5.1359 -9.9076,-5.24783 -6.12734,-5.45107 3.78025,-0.20311 9.13574,-0.49773 3.32402,-5.99863 1.75323,0.025 2.3708,-1.02393 2.72308,-2.3281 0.35231,-1.3042 0.43933,-2.86222 1.13157,-3.85129 z m 333.54511,225.63346 c 4.48471,10.99349 0.77425,23.53139 -1.47282,31.03842 -2.24708,7.50704 -3.03075,9.98321 7.30751,0.85324 -4.40341,10.62357 -11.81269,20.15706 -19.25276,29.89643 -7.44006,9.73938 -14.91087,19.68458 -19.43725,31.1316 -4.75289,11.47239 -11.67987,21.29446 -18.77029,30.9908 -7.09041,9.69631 -14.34435,19.26682 -19.75116,30.23615 -8.02043,13.69391 -14.44158,18.93934 -16.60668,17.72172 -2.16504,-1.21762 -0.0741,-8.89839 8.93004,-21.05685 7.77954,-15.55478 17.6145,-29.84975 27.2359,-44.26794 9.62139,-14.41816 19.02918,-28.95956 25.9544,-45.00713 7.82369,-8.14079 13.07668,-18.34819 16.98013,-29.10875 3.90345,-10.76057 6.45737,-22.0743 8.88298,-32.42769 z m -312.14116,47.26709 c 1.2252,-0.50747 0.97143,0.10509 0.53829,0.53829 -0.43318,0.43318 -1.04576,0.68691 -0.53829,-0.53829 z m 422.72832,125.74833 c -4.11843,22.20214 -9.19808,44.45949 -14.2756,66.7595 -5.07754,22.3 -10.15297,44.64262 -14.26302,67.01529 -4.89555,11.4985 -6.45214,24.08873 -4.38566,35.93352 2.0665,11.8447 7.75613,22.94387 17.35307,31.46008 10.39816,12.34422 22.57156,22.86615 34.63217,33.52325 12.06061,10.65713 24.00838,21.44965 33.95517,34.335 11.44418,9.2019 21.9388,20.43552 33.59529,29.43767 11.65653,9.00224 24.47491,15.77302 40.56676,16.0493 11.58713,0.94489 22.97983,3.72562 34.35587,5.70249 11.37601,1.97683 22.73539,3.14974 34.25559,0.87906 1.5246,0.6554 -12.66069,-5.83259 -21.80276,-11.72723 -9.1421,-5.89466 -13.24095,-11.19606 8.45626,-8.16731 11.23242,4.32931 23.21286,6.31042 35.10696,8.73229 11.89416,2.42185 23.70186,5.28426 34.58861,11.37629 4.12963,-0.64006 17.90019,-1.44907 29.02349,-3.40332 11.1233,-1.95437 19.5995,-5.05401 13.1405,-10.27561 -5.5011,-7.4319 -17.9249,-6.59427 -28.2633,-6.44555 -10.33835,0.14853 -18.59135,-0.3916 -15.75124,-10.57907 14.98894,-13.18323 -2.77957,-10.87828 -18.73853,-9.02747 -15.95896,1.85081 -30.10853,3.2475 -7.88156,-11.75218 15.02226,-1.48839 28.92273,-9.66462 36.10803,-21.06454 7.1853,-11.39994 7.6555,-26.02374 -4.18296,-40.40721 -9.6696,-17.54592 -17.16278,-36.73191 -26.36166,-54.71667 -9.19888,-17.98475 -20.10349,-34.76844 -36.59579,-47.50958 -16.14679,-2.27417 -32.33808,-4.80491 -48.09301,-8.85659 -15.75483,-4.05168 -31.07322,-9.62421 -45.47415,-17.98193 -15.47016,-6.49187 -28.67665,-16.16291 -41.35225,-26.54345 -12.67574,-10.38053 -24.82069,-21.47056 -38.16786,-30.80042 -2.6909,-4.24403 -5.96955,-7.83611 -9.37975,-11.31433 -3.41017,-3.47823 -6.95183,-6.84261 -10.16867,-10.63128 z m -434.32212,97.20969 c 1.22517,-0.50756 0.97143,0.10508 0.53827,0.5382 -0.43319,0.43319 -1.04577,0.68691 -0.53827,-0.5382 z m 35.67326,106.128 c -4.58828,18.73339 -18.14026,33.28558 -34.87962,44.9734 -16.73931,11.6878 -36.66606,20.51122 -54.00376,27.78712 -9.66134,6.77963 -21.505549,12.56913 -33.016099,17.74934 -11.51052,5.1802 -22.68739,9.75093 -31.01402,14.09308 22.26992,-3.62834 44.15055,-12.11285 66.300159,-18.3224 22.14959,-6.20966 44.56821,-10.14433 67.91415,-4.67295 15.20877,2.43032 30.48416,4.25958 45.79007,4.91248 15.30589,0.6529 30.64228,0.12949 45.97302,-2.14537 6.5146,-1.51178 -1.9291,-9.19479 -12.55708,-18.79293 -10.628,-9.59819 -23.4403,-21.11128 -25.66293,-30.28306 -4.85586,-6.69695 -10.69953,-12.56002 -16.7629,-18.22967 -6.06337,-5.66963 -12.34642,-11.14585 -18.08099,-17.06904 z m 231.87629,24.9713 c 5.73284,-18.51738 15.29395,-16.81638 19.1987,-11.22504 3.90474,5.59134 2.15312,15.07301 -14.73954,12.11688 3.61786,6.28953 9.08686,15.10734 12.03166,20.29773 2.94483,5.19045 3.36547,6.75364 -3.11334,-1.466 -1.09522,-1.9721 -3.83836,-6.56048 -4.84331,-7.2067 -1.00495,-0.64625 -0.27172,2.64971 5.58576,16.44644 -2.48965,5.69596 -4.10131,-0.82727 -6.0497,-9.13326 -1.9484,-8.306 -4.23355,-18.39483 -8.07023,-19.83005 z M 216.58458,782.04933 c 1.22517,-0.50756 0.9714,0.10509 0.53826,0.53823 -0.43318,0.43314 -1.04576,0.68695 -0.53826,-0.53823 z m 414.70182,24.9713 c -1.22518,-0.50758 -0.97146,0.10509 -0.53832,0.53823 0.43319,0.43314 1.04577,0.68686 0.53832,-0.53823 z M 85.485271,867.66517 c 1.2252,-0.50753 0.97143,0.10509 0.53825,0.53821 -0.43314,0.43316 -1.04572,0.68689 -0.53825,-0.53821 z m 294.304529,4.45916 c 1.22518,-0.50753 0.97145,0.10509 0.53827,0.53821 -0.43316,0.43316 -1.04574,0.68688 -0.53827,-0.53821 z m -204.22951,0.89184 c 1.22518,-0.50754 0.97144,0.10508 0.53829,0.5382 -0.43318,0.43316 -1.04576,0.68689 -0.53829,-0.5382 z m 202.44584,0 c 1.2252,-0.50754 0.97147,0.10508 0.53829,0.5382 -0.43318,0.43316 -1.04576,0.68689 -0.53829,-0.5382 z m -347.814433,3.56732 c 1.22516,-0.50754 0.97143,0.10509 0.53825,0.53823 -0.43315,0.43314 -1.04576,0.68686 -0.53825,-0.53823 z m 90.966863,6.24281 c 1.22518,-0.50754 0.97143,0.10508 0.53827,0.53822 -0.43319,0.43317 -1.04576,0.68689 -0.53827,-0.53822 z m 574.33977,3.56734 c 1.22517,-0.50753 0.97145,0.10509 0.5382,0.53821 -0.43318,0.43316 -1.04567,0.68699 -0.5382,-0.53821 z M 39.110017,897.09561 c 1.22516,-0.50754 0.97143,0.10508 0.53825,0.53823 -0.43315,0.43316 -1.04573,0.68688 -0.53825,-0.53823 z" />
</svg>
